<?xml version="1.0" encoding="utf-8"?>
<!-- Generator: Adobe Illustrator 16.0.0, SVG Export Plug-In . SVG Version: 6.00 Build 0)  -->
<!DOCTYPE svg PUBLIC "-//W3C//DTD SVG 1.1//EN" "http://www.w3.org/Graphics/SVG/1.1/DTD/svg11.dtd">
<svg version="1.1" id="Layer_1" xmlns="http://www.w3.org/2000/svg" xmlns:xlink="http://www.w3.org/1999/xlink" x="0px" y="0px"
	 width="438.164px" height="110.633px" viewBox="0 0 438.164 110.633" enable-background="new 0 0 438.164 110.633"
	 xml:space="preserve">
<g>
	<path fill="#5A8AB9" d="M210.609,64.151c0-6.633,6.123-6.125,6.123-6.125V52.26c-5.889,0-5.924-5.324-5.924-5.324v-35.01
		c0-12.823-10.301-11.912-10.301-11.912s-173.033,0-183.336,0C6.87,0.014,6.31,10.879,6.31,10.879v35.174
		C6.31,51.66,0,52.361,0,52.361v5.747c5.431,0,5.513,5.045,5.513,5.045s0,24.584,0,36.263c0,11.68,11.029,11.215,11.029,11.215
		s172.449,0,183.521,0c11.069,0,10.545-10.004,10.545-10.004S210.609,70.777,210.609,64.151z M71.502,75.057
		c4.251,0,8.961-0.927,11.731-2.027l2.125,10.988c-2.586,1.293-8.407,2.68-15.979,2.68c-21.524,0-32.611-13.396-32.611-31.133
		c0-21.247,15.153-33.072,33.996-33.072c7.298,0,12.84,1.481,15.335,2.774l-2.864,11.177c-2.862-1.203-6.833-2.311-11.822-2.311
		c-11.177,0-19.863,6.745-19.863,20.602C51.549,67.207,58.939,75.057,71.502,75.057z M108.818,86.699
		c-7.114,0-14.135-1.851-17.646-3.789l2.865-11.642c3.789,1.938,9.606,3.884,15.611,3.884c6.467,0,9.884-2.682,9.884-6.749
		c0-3.879-2.955-6.096-10.438-8.771c-10.345-3.604-17.088-9.333-17.088-18.385c0-10.624,8.868-18.754,23.552-18.754
		c7.024,0,12.195,1.481,15.895,3.144L128.309,37c-2.493-1.199-6.931-2.956-13.027-2.956c-6.093,0-9.049,2.771-9.049,6.005
		c0,3.973,3.505,5.727,11.547,8.776c10.987,4.06,16.164,9.79,16.164,18.566C133.944,77.835,125.908,86.699,108.818,86.699z
		 M157.678,86.699c-7.108,0-14.133-1.851-17.643-3.789l2.865-11.642c3.785,1.938,9.604,3.884,15.61,3.884
		c6.468,0,9.884-2.682,9.884-6.749c0-3.879-2.958-6.096-10.438-8.771c-10.347-3.604-17.092-9.333-17.092-18.385
		c0-10.624,8.87-18.754,23.559-18.754c7.02,0,12.193,1.481,15.887,3.144L177.17,37c-2.496-1.199-6.929-2.956-13.024-2.956
		c-6.1,0-9.056,2.771-9.056,6.005c0,3.973,3.512,5.727,11.55,8.776c10.993,4.06,16.167,9.79,16.167,18.566
		C182.807,77.835,174.77,86.699,157.678,86.699z"/>
	<path fill="#57595B" d="M432.244,46.938V11.932c0-12.827-10.309-11.916-10.309-11.916s-172.115,0-211.208,0
		c2.416,2.689,4.007,6.604,4.007,11.916v34.891c0.066,0.763,0.356,0.957,1.435,0.957h4.484v14.744l-4.854-0.022
		c-1.042,0.01-1.269,0.28-1.269,1.651v36.399c0.032,1.084-0.036,6.117-3.648,10.078c38.665,0,200.863,0,210.613,0
		c11.07,0,10.543-10.004,10.543-10.004s0-29.852,0-36.477c0-6.633,6.126-6.125,6.126-6.125v-5.766
		C432.276,52.26,432.244,46.938,432.244,46.938z M290.19,55.947l-3.977,21.684h-5.964l3.825-21.152
		c0.297-1.362,0.519-3.259,0.519-4.777c0-3.862-1.397-6.363-5.378-6.363c-4.416,0-9.641,5.308-11.114,13.498l-3.462,18.797h-5.889
		l3.975-21.525c0.301-1.597,0.443-3.038,0.443-4.474c0-3.111-0.812-6.293-5.304-6.293c-4.488,0-10.011,6.063-11.409,13.873
		l-3.312,18.422h-5.967l4.786-26c0.735-4.093,1.252-7.66,1.618-10.689h5.374L248,47.841h0.227c3.31-5.079,7.805-7.729,12.515-7.729
		c5.446,0,8.023,3.563,8.319,8.188c3.166-5.308,7.729-8.115,13.104-8.188c4.123,0,8.614,2.729,8.614,9.622
		C290.78,51.477,290.557,53.901,290.19,55.947z M327.371,60.65c-1.181,6.363-1.694,12.88-1.548,16.979h-5.669
		c0-2.2,0.363-5.688,0.81-9.479h-0.146c-3.902,7.578-8.767,10.311-13.844,10.311c-6.261,0-10.231-5.156-10.231-12.125
		c0-12.739,9.129-26.228,24.665-26.228c3.385,0,7.143,0.604,9.571,1.44L327.371,60.65z M356.523,45.865h-8.541l-3.313,17.814
		c-0.365,2.044-0.662,3.938-0.662,5.91c0,2.201,1.032,3.49,3.387,3.49c1.029,0,2.063-0.078,2.875-0.23l-0.298,4.926
		c-1.104,0.459-2.944,0.684-4.71,0.684c-5.451,0-7.513-3.408-7.513-7.127c0-2.121,0.223-4.24,0.736-6.893l3.532-18.574h-5.15
		l0.956-4.925h5.08l1.547-8.259l6.33-1.597l-1.841,9.856h8.537L356.523,45.865z M363.811,77.628h-6.104l6.847-36.688h6.109
		L363.811,77.628z M369.186,34.651c-2.133,0-3.532-1.671-3.532-3.94c0-2.431,1.847-4.249,4.051-4.249c2.212,0,3.604,1.67,3.604,3.94
		C373.234,32.902,371.541,34.651,369.186,34.651z M402.39,46.776c-1.396-0.682-3.386-1.367-6.038-1.367
		c-9.271,0-15.093,9.404-15.093,18.041c0,5.91,3.021,9.776,8.834,9.776c3.609,0,6.407-1.137,8.246-2.047l0.592,5.007
		c-1.844,0.903-5.522,2.192-10.312,2.192c-9.201,0-13.693-6.361-13.693-14.17c0-12.513,8.982-24.029,21.794-24.029
		c3.314,0,6.331,0.989,7.437,1.597L402.39,46.776z"/>
	<path fill="#57595B" d="M303.073,65.193c0,4.088,1.396,8.107,6.106,8.107c5.081,0,11.117-6.817,12.888-16.596l2.062-11.065
		c-0.881-0.23-2.208-0.53-4.27-0.53C310.658,45.109,303.147,55.035,303.073,65.193z"/>
</g>
</svg>
